<svg width="24" height="24" viewBox="0 0 24 24" fill="none" xmlns="http://www.w3.org/2000/svg">
<g id="arrow">
<path id="Vector" d="M11.2953 9.16957L7.05532 13.4096C6.96159 13.5025 6.8872 13.6131 6.83643 13.735C6.78566 13.8569 6.75952 13.9876 6.75952 14.1196C6.75952 14.2516 6.78566 14.3823 6.83643 14.5041C6.8872 14.626 6.96159 14.7366 7.05532 14.8296C7.24268 15.0158 7.49613 15.1204 7.76032 15.1204C8.02451 15.1204 8.27796 15.0158 8.46532 14.8296L12.0053 11.2896L15.5453 14.8296C15.7327 15.0158 15.9861 15.1204 16.2503 15.1204C16.5145 15.1204 16.768 15.0158 16.9553 14.8296C17.048 14.7361 17.1213 14.6253 17.1711 14.5035C17.2209 14.3816 17.2461 14.2512 17.2453 14.1196C17.2461 13.988 17.2209 13.8575 17.1711 13.7357C17.1213 13.6138 17.048 13.503 16.9553 13.4096L12.7153 9.16957C12.6224 9.07584 12.5118 9.00145 12.3899 8.95068C12.268 8.89991 12.1373 8.87377 12.0053 8.87377C11.8733 8.87377 11.7426 8.89991 11.6207 8.95068C11.4989 9.00145 11.3883 9.07584 11.2953 9.16957Z" fill="#2B2929"/>
</g>
</svg>
