<svg width="24" height="24" viewBox="0 0 24 24" fill="none" xmlns="http://www.w3.org/2000/svg">
<g id="arrow">
<path id="Vector" d="M12.7096 14.8246L16.9496 10.5846C17.0433 10.4916 17.1177 10.381 17.1685 10.2591C17.2192 10.1373 17.2454 10.0066 17.2454 9.87457C17.2454 9.74256 17.2192 9.61185 17.1685 9.48999C17.1177 9.36814 17.0433 9.25753 16.9496 9.16457C16.7622 8.97832 16.5087 8.87378 16.2446 8.87378C15.9804 8.87378 15.7269 8.97832 15.5396 9.16457L11.9996 12.7046L8.45956 9.16457C8.2722 8.97832 8.01875 8.87378 7.75456 8.87378C7.49038 8.87378 7.23693 8.97832 7.04956 9.16457C6.95688 9.25801 6.88356 9.36883 6.83379 9.49066C6.78403 9.6125 6.7588 9.74296 6.75956 9.87457C6.7588 10.0062 6.78403 10.1366 6.83379 10.2585C6.88356 10.3803 6.95688 10.4911 7.04956 10.5846L11.2896 14.8246C11.3825 14.9183 11.4931 14.9927 11.615 15.0435C11.7368 15.0942 11.8676 15.1204 11.9996 15.1204C12.1316 15.1204 12.2623 15.0942 12.3841 15.0435C12.506 14.9927 12.6166 14.9183 12.7096 14.8246Z" fill="#FFBC57"/>
</g>
</svg>
